<?xml version="1.0" encoding="UTF-8" standalone="no"?>
<svg
   xmlns:dc="http://purl.org/dc/elements/1.1/"
   xmlns:cc="http://creativecommons.org/ns#"
   xmlns:rdf="http://www.w3.org/1999/02/22-rdf-syntax-ns#"
   xmlns:svg="http://www.w3.org/2000/svg"
   xmlns="http://www.w3.org/2000/svg"
   xmlns:sodipodi="http://sodipodi.sourceforge.net/DTD/sodipodi-0.dtd"
   xmlns:inkscape="http://www.inkscape.org/namespaces/inkscape"
   viewBox="0 0 600.27198 171.83996"
   height="171.83997"
   width="600.27197"
   xml:space="preserve"
   version="1.1"
   id="svg2"
   sodipodi:docname="neogeo.svg"
   inkscape:version="0.92.4 (5da689c313, 2019-01-14)"><sodipodi:namedview
     pagecolor="#ffffff"
     bordercolor="#666666"
     borderopacity="1"
     objecttolerance="10"
     gridtolerance="10"
     guidetolerance="10"
     inkscape:pageopacity="0"
     inkscape:pageshadow="2"
     inkscape:window-width="1920"
     inkscape:window-height="1001"
     id="namedview52"
     showgrid="false"
     inkscape:zoom="1.6152659"
     inkscape:cx="368.19828"
     inkscape:cy="-42.186487"
     inkscape:window-x="-9"
     inkscape:window-y="-9"
     inkscape:window-maximized="1"
     inkscape:current-layer="g20" /><metadata
     id="metadata8"><rdf:RDF><cc:Work
         rdf:about=""><dc:format>image/svg+xml</dc:format><dc:type
           rdf:resource="http://purl.org/dc/dcmitype/StillImage" /><dc:title></dc:title></cc:Work></rdf:RDF></metadata><defs
     id="defs6"><clipPath
       id="clipPath16"
       clipPathUnits="userSpaceOnUse"><path
         id="path18"
         d="M 0,618.062 H 1949.984 V 0 H 0 Z"
         inkscape:connector-curvature="0" /></clipPath></defs><g
     id="g99"
     transform="matrix(0.25432998,0,0,0.25432998,-9.8260388,-12.324863)"><g
       id="g10"
       transform="matrix(1.25,0,0,-1.25,0,772.5775)"><g
         id="g12"><g
           id="g14"
           clip-path="url(#clipPath16)"><g
             id="g20"
             transform="translate(30.908,309.0299)"><path
               d="m 0,0 c 0,149.251 121.013,270.264 270.262,270.264 149.25,0 270.264,-121.013 270.264,-270.264 0,-149.25 -121.014,-270.262 -270.264,-270.262 C 121.013,-270.262 0,-149.25 0,0"
               style="fill:#000000;fill-opacity:1;fill-rule:nonzero;stroke:none"
               id="path22"
               inkscape:connector-curvature="0" /></g><g
             id="g24"
             transform="translate(405.6829,391.9049)"><path
               d="m 0,0 c -4.763,1.051 -9.038,5.4 -9.038,5.4 l 1.801,5.4 5.437,3.6 c 0,0 5.4,-0.449 7.2,-1.8 C 7.2,11.25 9,5.4 9,5.4 L 4.95,1.8 C 4.95,1.8 4.05,-0.899 0,0 m 30.601,30.637 7.236,10.802 h 9.002 c 0,0 7.649,-11.25 7.649,-13.052 0,-1.8 -5.85,-10.386 -5.85,-10.386 L 36.9,18.45 Z m 0,-90.075 c 6.112,-3.9 12.599,-3.825 18.9,-3.75 10.538,0.114 20.661,3.414 27.936,11.851 5.888,8.549 6.04,13.876 9.488,23.549 2.025,5.663 4.5,8.888 4.5,8.888 0,0 2.025,-7.65 1.801,-16.686 -0.151,-6.039 -1.238,-12.413 -4.951,-18.452 -7.2,-11.737 -13.987,-16.236 -18.936,-17.137 -4.951,-0.899 -18.9,-2.699 -27.902,1.35 -7.049,3.187 -10.836,10.387 -10.836,10.387 M -9.038,95.475 -52.274,32.438 -21.638,-34.237 32.4,-102.713 73.837,-117.112 126.112,-54.038 118.912,0 64.838,75.676 Z"
               style="fill:#f7b210;fill-opacity:1;fill-rule:nonzero;stroke:none"
               id="path26"
               inkscape:connector-curvature="0" /></g><g
             id="g28"
             transform="translate(84.9827,291.0299)"><path
               d="m 0,0 5.4,144.114 18.001,21.637 70.274,-52.276 18.001,106.763 3.6,-31.088 9.036,16.238 1.8,-14.438 12.601,16.238 2.1,-189.489 L 39.637,95.476 C 39.637,95.476 0,0.9 0,0"
               style="fill:#f7b210;fill-opacity:1;fill-rule:nonzero;stroke:none"
               id="path30"
               inkscape:connector-curvature="0" /></g><g
             id="g32"
             transform="translate(241.6956,507.2174)"><path
               d="m 0,0 121.95,34.237 c 0,0 -24.637,-14.436 -22.837,-14.436 1.799,0 16.2,-1.8 16.2,-1.8 L 86.512,0 l 32.4,1.8 -86.475,-50.436 v -3.602 l 93.713,5.402 -93.713,-66.677 v -19.798 l 70.577,8.699 c 0,0 -23.288,-13.237 -21.903,-12.338 1.353,0.937 17.101,0.638 17.101,0.638 l -9.899,-6.038 h 17.099 L 1.838,-216.187 Z"
               style="fill:#f7b210;fill-opacity:1;fill-rule:nonzero;stroke:none"
               id="path34"
               inkscape:connector-curvature="0" /></g><g
             id="g36"
             transform="translate(232.6956,235.1549)"><path
               d="m 0,0 -29.774,65.176 c 0,0 -16.5,14.888 -45.788,13.837 -6.451,-0.225 -59.738,-0.638 -63.151,-82.613 -3.038,-73.312 45.826,-107.963 45.826,-107.963 0,0 23.662,-17.474 41.175,-28.087 17.512,-10.649 49.912,-26.1 49.912,-26.1 L -27.001,-5.398 -81.075,-21.6 l 10.838,-1.8 -18.038,-14.438 16.199,-1.799 -10.799,-10.801 28.837,-1.799 10.8,-41.437 c 0,0 -21.975,6.9 -40.463,25.274 -15.148,15.075 -27.336,39.639 -28.011,59.401 -0.638,19.761 8.624,44.7 36.037,45.037 C -48.224,36.375 0,0 0,0"
               style="fill:#1082ce;fill-opacity:1;fill-rule:nonzero;stroke:none"
               id="path38"
               inkscape:connector-curvature="0" /></g><g
             id="g40"
             transform="translate(218.2962,190.1178)"><path
               d="m 0,0 102.675,140.549 64.874,-52.275 c 0,0 -8.101,2.065 -8.999,1.8 -0.901,-0.224 14.399,-21.599 14.399,-21.599 l -19.8,7.201 10.8,-14.4 -66.675,23.399 -5.399,-5.4 43.237,-72.076 -88.275,3.6 48.639,-93.674 -18.002,3.601 8.476,-21.189 -15.225,13.238 12.149,-22.687 z"
               style="fill:#1082ce;fill-opacity:1;fill-rule:nonzero;stroke:none"
               id="path42"
               inkscape:connector-curvature="0" /></g><g
             id="g44"
             transform="translate(371.4456,148.6803)"><path
               d="M 0,0 5.4,9 21.6,16.199 34.237,0 h 10.8 l 14.401,5.4 10.799,-23.4 -27,-12.637 H 30.601 l -5.402,10.799 H 7.2 Z m 93.675,48.637 c 0,0 6.562,2.926 7.2,1.801 0.637,-1.087 9,-1.801 9,-1.801 v -9 l -7.2,-5.4 -9,5.4 z m -37.836,9.002 -7.202,10.836 7.202,14.4 18.036,1.801 5.401,-10.801 -5.401,-14.437 z m -81.077,-34.202 -1.799,-64.875 28.838,-23.437 50.773,10.687 84.338,73.987 5.4,91.914 H 45.037 Z"
               style="fill:#1082ce;fill-opacity:1;fill-rule:nonzero;stroke:none"
               id="path46"
               inkscape:connector-curvature="0" /></g><g
             id="g48"
             transform="translate(1681.4611,146.5197)"><path
               d="m 0,0 h -149.62 c -5.312,0 -10.431,0.197 -15.549,0.984 -4.922,0.591 -9.45,1.575 -13.584,2.756 -5.906,1.378 -10.237,4.331 -12.993,6.691 -2.362,2.168 -3.544,4.531 -3.544,6.893 V 43.31 c 0.591,2.166 2.166,4.922 4.725,6.89 2.557,1.969 6.103,3.741 10.237,4.922 4.331,1.181 9.056,2.166 14.371,2.756 5.512,0.591 11.222,0.984 17.521,0.984 H 0 v -7.874 h -148.436 c -6.299,0 -11.812,-0.197 -16.733,-0.788 -4.728,-0.59 -9.45,-1.574 -13.781,-2.753 -5.906,-1.774 -7.087,-3.94 -8.268,-6.893 l -0.197,-6.1 H -0.197 L 0,26.38 h -187.218 v -8.465 c 0,-2.166 1.575,-4.331 9.447,-6.497 3.94,-0.987 8.271,-1.772 13.192,-2.365 4.919,-0.785 9.844,-0.982 14.765,-0.982 H 0 Z"
               style="fill:#231f20;fill-opacity:1;fill-rule:nonzero;stroke:none"
               id="path50"
               inkscape:connector-curvature="0" /></g><g
             id="g52"
             transform="translate(1372.3838,146.5197)"><path
               d="M 0,0 H -0.394 Z"
               style="fill:#231f20;fill-opacity:1;fill-rule:nonzero;stroke:none"
               id="path54"
               inkscape:connector-curvature="0" /></g><g
             id="g56"
             transform="translate(1462.5492,197.1136)"><path
               d="m 0,0 h -94.298 v -50.594 h -8.271 V 0 H -196.67 V 8.268 H 0 Z"
               style="fill:#231f20;fill-opacity:1;fill-rule:nonzero;stroke:none"
               id="path58"
               inkscape:connector-curvature="0" /></g><g
             id="g60"
             transform="translate(992.2376,170.93)"><path
               d="M 0,0 H -54.531 V -24.411 H -62.8 V 0 h -70.477 c -10.631,0 -23.818,1.381 -23.818,17.13 v 17.324 h 8.659 V 17.915 c 0,-10.434 10.04,-9.447 16.537,-9.447 H -0.591 16.34 c 6.693,0 16.733,-0.987 16.733,9.447 v 16.539 h 8.268 V 17.13 C 41.342,1.381 28.152,0 17.521,0 Z"
               style="fill:#231f20;fill-opacity:1;fill-rule:nonzero;stroke:none"
               id="path62"
               inkscape:connector-curvature="0" /></g><g
             id="g64"
             transform="translate(813.8786,196.9186)"><path
               d="m 0,0 h -157.492 c -7.874,0 -14.961,-1.381 -20.08,-3.546 -3.937,-1.575 -6.299,-3.347 -6.299,-4.922 0,-1.575 2.362,-3.344 6.299,-4.919 5.119,-1.971 12.206,-3.349 20.08,-3.349 h 68.312 54.532 c 5.906,0 11.615,-0.588 16.34,-1.769 2.559,-0.591 4.724,-1.378 6.89,-2.169 2.165,-0.981 4.134,-1.968 5.709,-2.952 3.74,-2.754 5.906,-6.103 5.906,-9.841 v -0.2 c 0,-5.315 -4.528,-9.84 -11.615,-12.793 -6.103,-2.362 -14.371,-3.94 -23.23,-3.94 h -155.326 v 8.468 h 155.326 c 7.874,0 14.962,1.378 20.08,3.344 3.74,1.772 6.3,3.546 6.3,4.921 v 0.2 c 0,0.785 -0.985,1.769 -2.363,2.756 -1.181,0.788 -2.559,1.375 -3.937,2.166 -1.772,0.588 -3.544,1.178 -5.709,1.769 -4.134,0.984 -9.056,1.575 -14.371,1.575 h -54.532 -68.312 c -8.859,0 -17.127,1.378 -23.23,3.94 -7.087,2.95 -11.615,7.478 -11.615,12.793 0,5.515 4.528,10.04 11.615,12.993 6.103,2.365 14.371,3.94 23.23,3.94 H 0 Z"
               style="fill:#231f20;fill-opacity:1;fill-rule:nonzero;stroke:none"
               id="path66"
               inkscape:connector-curvature="0" /></g><g
             id="g68"
             transform="translate(1245.9949,196.9186)"><path
               d="m 0,0 h -157.292 c -7.875,0 -14.962,-1.381 -20.08,-3.546 -3.937,-1.575 -6.3,-3.347 -6.3,-4.922 0,-1.575 2.363,-3.344 6.3,-4.919 5.118,-1.971 12.205,-3.349 20.08,-3.349 h 68.312 54.529 c 5.908,0 11.618,-0.588 16.145,-1.769 2.557,-0.591 4.725,-1.378 6.888,-2.169 2.168,-0.981 4.134,-1.968 5.712,-2.952 h -0.197 c 3.937,-2.754 6.1,-6.103 6.1,-9.841 v -0.2 c 0,-5.315 -4.528,-9.84 -11.615,-12.793 -6.1,-2.362 -14.172,-3.94 -23.033,-3.94 h -155.324 v 8.468 h 155.324 c 7.877,0 14.767,1.378 19.689,3.344 3.934,1.772 6.496,3.546 6.496,4.921 v 0.2 c 0,0.785 -0.984,1.769 -2.362,2.756 -1.181,0.788 -2.559,1.375 -3.937,2.166 -1.772,0.588 -3.544,1.178 -5.512,1.769 -4.135,0.984 -9.056,1.575 -14.374,1.575 h -54.529 -68.312 c -8.859,0 -17.127,1.378 -23.23,3.94 -7.087,2.95 -11.615,7.478 -11.615,12.793 0,5.515 4.331,10.04 11.615,12.993 6.103,2.365 14.371,3.94 23.23,3.94 H 0 Z"
               style="fill:#231f20;fill-opacity:1;fill-rule:nonzero;stroke:none"
               id="path70"
               inkscape:connector-curvature="0" /></g><g
             id="g72"
             transform="translate(1902.3436,205.3829)"><path
               d="M 0,0 C 2.166,0 4.331,-1.575 4.331,-4.134 V -58.862 H -3.74 v 47.444 l -89.377,-45.082 -1.181,-0.397 c -4.922,-1.965 -6.3,-1.574 -9.846,0 l -1.179,0.594 -88.591,45.079 v -47.639 h -8.465 v 54.926 c 0,2.559 2.165,3.937 4.134,3.937 1.184,0 1.771,-0.197 2.759,-0.787 l 92.129,-47.448 c 3.544,-1.574 4.137,-2.359 8.468,-0.196 l 81.499,41.538 11.618,6.3 C -1.181,-0.197 -0.396,0 0,0"
               style="fill:#231f20;fill-opacity:1;fill-rule:nonzero;stroke:none"
               id="path74"
               inkscape:connector-curvature="0" /></g><g
             id="g76"
             transform="translate(1496.2117,471.5432)"><path
               d="m 0,0 v -70.281 h -5.512 c -6.497,19.293 -16.34,33.861 -29.527,43.702 -12.996,10.042 -20.871,15.161 -36.423,15.161 -14.765,0 -27.167,-4.331 -37.01,-12.599 -10.043,-8.468 -16.931,-20.081 -21.065,-35.042 -4.134,-14.962 -6.1,-30.317 -6.1,-46.067 0,-19.095 2.166,-35.829 6.691,-50.203 4.528,-14.565 11.812,-22.24 21.852,-28.939 10.04,-6.691 18.111,-10.037 31.892,-10.037 4.921,0 9.843,0.393 14.764,1.375 5.122,1.184 9.056,2.562 14.369,4.531 v 50.791 c 0,7.874 -0.588,12.993 -1.572,15.355 -1.182,2.166 -3.347,4.331 -6.694,6.103 -3.349,1.969 -7.481,2.953 -12.402,2.953 h -5.119 v 5.315 h 96.858 v -5.315 c -7.284,-0.591 -12.403,-1.578 -15.358,-3.15 -2.953,-1.381 -5.119,-3.937 -6.691,-7.481 -0.788,-1.968 -1.184,-6.496 -1.378,-13.78 l -0.394,-49.216 c -12.602,-5.513 -24.214,-10.237 -37.995,-13.19 -13.78,-2.756 -28.154,-5.116 -42.916,-5.116 -18.899,0 -30.908,1.375 -43.31,6.494 -12.597,5.118 -23.427,9.843 -33.076,18.114 -9.45,8.462 -16.928,17.909 -22.44,28.346 -6.694,13.583 -10.237,28.545 -10.237,45.478 0,29.921 10.631,55.12 31.695,75.788 20.868,20.673 47.444,30.91 79.336,30.91 14.568,0 27.561,-3.74 41.145,-8.859 9.647,-3.74 15.356,-5.512 17.127,-5.512 2.756,0 5.119,0.984 7.481,2.953 2.363,1.969 4.528,5.709 6.497,11.418 z"
               style="fill:#231f20;fill-opacity:1;fill-rule:nonzero;stroke:none"
               id="path78"
               inkscape:connector-curvature="0" /></g><g
             id="g80"
             transform="translate(1139.0996,458.7479)"><path
               d="m 0,0 h -0.394 v 11.022 c 32.483,0.787 59.257,-8.463 79.73,-27.364 20.868,-19.487 31.299,-43.704 31.299,-72.838 0,-25.001 -7.869,-46.853 -23.424,-65.949 C 66.54,-180.134 37.404,-192.73 -0.394,-192.73 v 15.158 c 10.434,0 19.49,2.756 26.38,7.478 8.859,5.906 14.568,15.555 19.49,28.745 4.921,12.993 8.268,29.727 8.268,50.791 0,25.199 -2.559,43.901 -7.678,56.304 C 41.145,-21.655 34.648,-12.993 26.97,-7.68 19.096,-2.562 10.04,0 0,0 m -0.394,0 c -18.702,-0.197 -32.679,-9.059 -42.326,-26.776 -8.071,-14.371 -12.008,-35.433 -12.008,-62.6 0,-32.483 5.709,-56.894 17.914,-72.25 8.662,-10.827 21.065,-15.946 36.42,-15.946 v -15.158 h -0.197 c -37.798,0 -67.13,12.006 -87.801,36.023 -16.34,18.902 -24.608,41.344 -24.608,67.331 0,29.135 10.63,53.547 31.892,72.837 21.261,19.492 47.444,28.745 78.549,27.561 h 2.165 z"
               style="fill:#231f20;fill-opacity:1;fill-rule:nonzero;stroke:none"
               id="path82"
               inkscape:connector-curvature="0" /></g><g
             id="g84"
             transform="translate(921.3666,455.3996)"><path
               d="m 0,0 v -78.549 h 4.331 c 13.584,0 18.899,3.937 25.002,12.009 6.103,7.874 10.04,19.492 11.615,35.042 h 6.103 v -104.339 h -6.103 c -1.181,11.419 -3.937,20.674 -7.875,27.955 -4.134,7.284 -8.859,12.206 -14.174,14.568 -5.315,2.562 -8.662,3.741 -18.899,3.741 v -58.469 c 0,-11.025 0.591,-17.718 1.575,-20.08 0.984,-2.56 2.756,-4.528 5.512,-6.103 2.756,-1.575 7.087,-2.362 13.387,-2.362 H 33.27 c 19.883,0 25.592,4.331 37.601,12.993 12.009,8.465 20.277,18.308 25.593,36.026 h 5.906 l -9.253,-60.041 H -81.896 v 5.509 h 7.284 c 6.103,0 11.222,0.985 14.962,2.953 2.756,1.378 4.922,3.741 6.3,7.087 1.181,2.363 1.772,8.466 1.772,18.506 V -22.44 c 0,8.856 -0.197,14.371 -0.788,16.534 -0.984,3.347 -2.953,6.103 -5.906,7.877 -3.937,2.756 -9.449,4.132 -16.34,4.132 h -7.284 v 5.512 H 97.645 v -58.86 h -5.906 c -3.15,14.371 -7.284,24.608 -12.993,30.902 C 73.234,-10.04 65.556,-5.512 55.319,-2.559 49.413,-0.787 38.389,0 22.049,0 Z"
               style="fill:#231f20;fill-opacity:1;fill-rule:nonzero;stroke:none"
               id="path86"
               inkscape:connector-curvature="0" /></g><g
             id="g88"
             transform="translate(688.6728,467.0146)"><path
               d="m 0,0 110.441,-123.631 v 85.639 c 0,12.006 -1.772,20.077 -5.709,24.214 -5.315,5.707 -11.615,8.465 -24.214,8.266 V 0 h 66.737 v -5.512 c -9.45,-0.985 -11.025,-2.559 -14.175,-4.132 -3.346,-1.774 -5.906,-4.53 -7.677,-8.468 -1.772,-3.74 -2.756,-10.431 -2.756,-19.88 v -165.76 h -5.513 l -151.585,165.76 v -126.584 c 0,-11.418 2.953,-19.099 8.859,-23.23 5.906,-3.94 12.599,-5.909 20.277,-5.909 H 0 v -5.509 h -79.533 v 5.509 c 12.402,0 20.867,2.363 25.789,6.694 4.725,4.331 7.284,11.812 7.284,22.445 v 140.561 l -4.922,5.313 c -4.724,5.318 -8.859,8.662 -12.402,10.436 -3.741,1.575 -0.394,2.557 -7.087,2.754 V 0 Z"
               style="fill:#231f20;fill-opacity:1;fill-rule:nonzero;stroke:none"
               id="path90"
               inkscape:connector-curvature="0" /></g><g
             id="g92"
             transform="translate(1808.2435,458.7479)"><path
               d="m 0,0 h -0.394 v 11.022 c 32.483,0.787 59.254,-8.463 79.728,-27.364 21.064,-19.487 31.498,-43.704 31.498,-72.838 0,-25.001 -7.872,-46.853 -23.427,-65.949 -20.868,-25.005 -50.004,-37.601 -87.799,-37.601 v 15.158 c 10.431,0 19.49,2.756 26.377,7.478 8.862,5.906 14.571,15.555 19.49,28.745 4.922,12.993 8.271,29.727 8.271,50.791 0,25.199 -2.562,43.901 -7.68,56.304 C 41.142,-21.655 34.645,-12.993 26.97,-7.68 19.096,-2.562 10.037,0 0,0 m -0.394,0 c -18.705,-0.197 -32.679,-9.059 -42.326,-26.776 -8.074,-14.371 -12.008,-35.433 -12.008,-62.6 0,-32.483 5.709,-56.894 17.912,-72.25 8.662,-10.827 21.064,-15.946 36.422,-15.946 v -15.158 h -0.199 c -37.798,0 -67.131,12.006 -87.802,36.023 -16.337,18.902 -24.608,41.344 -24.608,67.331 0,29.135 10.631,53.547 31.892,72.837 21.261,19.492 47.444,28.745 78.552,27.561 h 2.165 z"
               style="fill:#231f20;fill-opacity:1;fill-rule:nonzero;stroke:none"
               id="path94"
               inkscape:connector-curvature="0" /></g><g
             id="g96"
             transform="translate(1590.5078,455.3996)"><path
               d="m 0,0 v -78.549 h 4.334 c 13.583,0 18.899,3.937 25.002,12.009 6.1,7.874 10.037,19.492 11.615,35.042 h 6.102 v -104.339 h -6.102 c -1.184,11.419 -3.938,20.674 -7.875,27.955 -4.134,7.284 -8.859,12.206 -14.174,14.568 -5.316,2.562 -8.665,3.741 -18.902,3.741 v -58.469 c 0,-11.025 0.593,-17.718 1.578,-20.08 0.984,-2.56 2.756,-4.528 5.512,-6.103 2.756,-1.575 7.087,-2.362 13.387,-2.362 H 33.27 c 19.886,0 25.595,4.331 37.601,12.993 12.012,8.465 20.277,18.308 25.595,36.026 h 5.906 L 93.12,-187.609 H -81.893 v 5.509 h 7.284 c 6.1,0 11.221,0.985 14.962,2.953 2.753,1.378 4.919,3.741 6.299,7.087 1.179,2.363 1.772,8.466 1.772,18.506 V -22.44 c 0,8.856 -0.197,14.371 -0.787,16.534 -0.985,3.347 -2.953,6.103 -5.906,7.877 -3.94,2.756 -9.45,4.132 -16.34,4.132 h -7.284 v 5.512 H 97.648 v -58.86 H 91.742 C 88.589,-32.874 84.458,-22.637 78.749,-16.343 73.236,-10.04 65.559,-5.512 55.322,-2.559 49.413,-0.787 38.389,0 22.052,0 Z"
               style="fill:#231f20;fill-opacity:1;fill-rule:nonzero;stroke:none"
               id="path98"
               inkscape:connector-curvature="0" /></g><g
             id="g100"
             transform="translate(1277.2972,388.0716)"><path
               d="m 0,0 h 1.184 c 11.218,0 20.277,-8.856 20.277,-19.49 0,-10.63 -9.059,-19.292 -20.277,-19.292 H 0 c -11.219,0 -20.274,8.662 -20.274,19.292 C -20.274,-8.856 -11.219,0 0,0"
               style="fill:#231f20;fill-opacity:1;fill-rule:nonzero;stroke:none"
               id="path102"
               inkscape:connector-curvature="0" /></g><path
             style="fill:#ffffff;fill-opacity:1;stroke-width:0.43776494"
             d="m 222.48791,74.591648 -23.84708,-26.083425 -0.12815,20.28304 c -0.0705,11.155671 -0.008,21.128578 0.13903,22.162014 0.51979,3.655363 4.26058,6.219677 9.0732,6.219677 1.5147,0 1.68666,0.108421 1.56217,0.984971 l -0.13989,0.984971 h -12.69518 c -12.57535,0 -12.69643,-0.0087 -12.82684,-0.922091 -0.1168,-0.818108 0.1508,-0.955282 2.37311,-1.21647 3.97785,-0.46752 6.16853,-1.646806 7.17382,-3.861817 0.81199,-1.789102 0.85343,-3.038317 0.86258,-26.002403 l 0.01,-24.123011 -2.29827,-2.169672 c -1.26404,-1.19332 -2.93849,-2.451949 -3.721,-2.796954 -0.99931,-0.440594 -1.42274,-0.921189 -1.42274,-1.614831 v -0.987549 h 11.28451 11.2845 l 2.39565,2.727598 c 1.31761,1.500179 9.15195,10.285145 17.40965,19.522146 l 15.014,16.794549 -0.12999,-15.910586 c -0.12291,-15.04371 -0.17824,-15.994065 -1.01554,-17.442762 -1.06829,-1.848377 -4.10478,-3.50212 -6.43033,-3.50212 -1.47701,0 -1.6583,-0.119644 -1.6583,-1.094412 v -1.094413 h 10.72524 10.72524 v 1.038463 c 0,0.860256 -0.28171,1.0847 -1.64162,1.307906 -2.24778,0.368934 -4.29016,1.709713 -5.23193,3.434657 -0.73185,1.340457 -0.7959,3.486148 -0.9088,30.444022 l -0.12145,29.001924 h -0.98406 c -0.74241,0 -6.84019,-6.405308 -24.83115,-26.083422 z"
             id="path3813"
             inkscape:connector-curvature="0"
             transform="matrix(3.1455198,0,0,-3.1455198,30.908,579.2939)" /><path
             style="fill:#ffffff;fill-opacity:1;stroke-width:0.43776494"
             d="m 188.35335,136.39358 v -1.53506 l 26.81311,-0.12833 c 26.54439,-0.12705 26.83394,-0.13796 28.89248,-1.08869 2.38984,-1.10374 2.56636,-1.61081 0.8667,-2.48974 -2.65628,-1.37361 -6.39406,-1.5842 -28.11851,-1.5842 -23.56714,0 -24.76176,-0.10497 -27.50971,-2.41721 -3.71096,-3.12257 -0.89525,-6.98846 5.90063,-8.10141 1.43256,-0.23461 13.93458,-0.42155 28.28594,-0.42297 l 25.71869,-0.003 v 1.51647 1.51647 l -27.25087,0.12514 c -27.14609,0.12467 -27.25901,0.12891 -29.36919,1.10273 -1.2434,0.57382 -2.042,1.20657 -1.93352,1.532 0.10164,0.30493 1.15338,0.9388 2.33721,1.4086 2.01487,0.79961 3.70478,0.86954 26.44835,1.09459 l 24.29596,0.24041 1.93116,1.09441 c 3.75007,2.12521 4.4223,4.51019 1.92388,6.82565 -2.69889,2.50124 -3.20643,2.54356 -32.4192,2.70268 l -26.81311,0.14604 z"
             id="path3815"
             inkscape:connector-curvature="0"
             transform="matrix(3.1455198,0,0,-3.1455198,30.908,579.2939)" /><path
             style="fill:#ffffff;fill-opacity:1;stroke-width:0.43776494"
             d="m 392.89502,72.222717 c -5.64669,-3.442827 -3.12486,-11.38098 3.61556,-11.38098 6.59525,0 9.1566,7.659099 3.7657,11.260448 -1.94287,1.297923 -5.3587,1.353702 -7.38126,0.120532 z"
             id="path3817"
             inkscape:connector-curvature="0"
             transform="matrix(3.1455198,0,0,-3.1455198,30.908,579.2939)" /><path
             style="fill:#ffffff;fill-opacity:1;stroke-width:0.43776494"
             d="m 345.0732,99.316435 c -7.51951,-1.153078 -14.8394,-4.777531 -19.54466,-9.677569 -4.9185,-5.122108 -7.5297,-10.171661 -8.6846,-16.79431 -1.5526,-8.903278 -0.0353,-16.607572 4.65062,-23.613543 5.06638,-7.574865 13.65779,-12.873011 23.0986,-14.244421 4.60049,-0.668287 13.53467,-0.328853 17.99064,0.683514 9.64472,2.191217 17.75148,8.516529 21.8772,17.069707 4.55765,9.448634 4.02645,21.721099 -1.32322,30.570644 -4.72933,7.82335 -11.60276,12.962596 -20.3351,15.204496 -4.11389,1.056182 -13.34667,1.47356 -17.72948,0.801482 z m 13.35183,-6.028558 c 4.10792,-1.830199 6.34141,-4.795977 8.50009,-11.28698 1.88385,-5.66464 2.38589,-10.051162 2.09099,-18.269587 -0.35064,-9.771609 -1.62234,-14.768224 -5.00765,-19.675449 -3.55859,-5.158404 -12.0861,-7.06012 -18.21417,-4.061934 -6.01533,2.943024 -9.451,9.825363 -10.46025,20.953979 -0.56686,6.250516 -0.0418,14.498417 1.24704,19.58998 1.87454,7.405192 5.84415,12.174891 11.33759,13.622702 2.46387,0.649359 8.15021,0.177023 10.50636,-0.872711 z"
             id="path3819"
             inkscape:connector-curvature="0"
             transform="matrix(3.1455198,0,0,-3.1455198,30.908,579.2939)" /><path
             style="fill:#ffffff;fill-opacity:1;stroke-width:0.43776494"
             d="m 257.08245,98.33054 c 0,-0.95846 0.21048,-1.054611 2.75581,-1.258929 3.44374,-0.276427 5.26402,-1.195055 6.04727,-3.051808 0.87875,-2.083166 0.90331,-52.145199 0.0263,-53.684065 -0.82439,-1.446596 -3.81466,-2.677837 -6.53116,-2.689201 -2.15707,-0.009 -2.29826,-0.07685 -2.29826,-1.104026 v -1.094413 h 28.68214 28.68214 l -0.11798,9.521388 -0.11798,9.521387 h -1.04968 c -0.91021,0 -1.14642,-0.349 -1.77772,-2.62659 -1.04913,-3.785032 -2.16232,-5.883138 -4.20851,-7.932066 -3.2212,-3.225522 -8.67721,-4.504188 -19.33943,-4.532373 l -4.48709,-0.01186 v 12.4763 c 0,14.160259 -0.39723,12.927785 3.87164,12.012277 2.63848,-0.565853 4.98755,-2.708811 6.44945,-5.883568 0.90318,-1.96138 1.28992,-3.287596 2.13829,-7.332562 0.19336,-0.921955 0.50681,-1.203854 1.33856,-1.203854 h 1.08607 v 16.635068 16.635067 h -1.08607 c -0.83302,0 -1.14369,-0.280498 -1.33335,-1.203854 -1.82656,-8.892517 -4.85434,-12.713142 -10.60408,-13.3808 l -1.86051,-0.216041 v 11.71267 c 0,7.03596 0.18316,12.238078 0.45871,13.028528 0.75294,2.159875 2.04188,2.535797 8.69465,2.535797 5.50583,0 6.1291,-0.08519 8.35724,-1.142369 5.78236,-2.743525 10.07379,-7.036796 11.87604,-11.881137 0.778,-2.091238 1.11171,-2.517149 1.97221,-2.517149 0.56967,0 1.029,0.246243 1.02073,0.547207 -0.008,0.300963 -0.65852,4.684084 -1.44503,9.740269 l -1.43001,9.193064 -27.88521,0.11268 -27.88522,0.112681 z"
             id="path3821"
             inkscape:connector-curvature="0"
             transform="matrix(3.1455198,0,0,-3.1455198,30.908,579.2939)" /><path
             style="fill:#ffffff;fill-opacity:1;stroke-width:0.43776494"
             d="m 285.53717,133.99693 v -3.94363 l -13.02351,-0.13343 c -12.20838,-0.12508 -13.1194,-0.18963 -14.55568,-1.03134 -1.93685,-1.13507 -2.70693,-3.31628 -2.53512,-7.18063 0.12722,-2.8613 0.12947,-2.86578 1.5027,-2.99922 l 1.37528,-0.13364 0.16191,3.56527 c 0.13166,2.8992 0.31972,3.68067 1.00665,4.18297 0.70541,0.5158 5.2175,0.6167 27.35529,0.61171 14.58081,-0.003 26.9414,-0.12152 27.46799,-0.26274 1.23235,-0.33049 1.88803,-2.23622 1.88803,-5.48755 0,-2.55401 0.004,-2.56126 1.3133,-2.56126 h 1.31329 v 3.7004 c 0,4.27687 -0.41857,5.46403 -2.33556,6.62416 -1.26947,0.76826 -2.49251,0.84957 -14.61113,0.97145 l -13.22569,0.13302 -0.12614,3.80687 -0.12614,3.80687 -1.42273,0.13718 -1.42274,0.13717 z"
             id="path3823"
             inkscape:connector-curvature="0"
             transform="matrix(3.1455198,0,0,-3.1455198,30.908,579.2939)" /><path
             style="fill:#ffffff;fill-opacity:1;stroke-width:0.43776494"
             d="m 325.81154,136.39358 v -1.53506 l 26.8131,-0.12833 c 26.54439,-0.12705 26.83394,-0.13796 28.89249,-1.08869 2.33205,-1.07705 2.49832,-1.41288 1.12435,-2.27094 -2.29541,-1.43351 -3.92026,-1.53776 -27.71857,-1.77841 l -24.07707,-0.24347 -2.16607,-1.09442 c -5.24814,-2.65163 -4.69458,-6.55975 1.22156,-8.62411 2.08017,-0.72585 4.39313,-0.78783 29.39923,-0.78783 h 27.14143 v 1.31329 1.3133 l -27.14143,0.21888 c -26.93458,0.21721 -27.15757,0.22633 -29.25975,1.19646 -1.2434,0.57382 -2.042,1.20657 -1.93353,1.532 0.10165,0.30493 1.15339,0.93943 2.33721,1.41001 2.01534,0.80111 3.68567,0.87081 26.22948,1.09459 23.29841,0.23127 24.14078,0.2688 26.04701,1.16042 3.83861,1.79546 4.72948,4.31606 2.38891,6.75909 -2.64471,2.76048 -2.87029,2.78091 -32.48525,2.94223 l -26.8131,0.14604 z"
             id="path3825"
             inkscape:connector-curvature="0"
             transform="matrix(3.1455198,0,0,-3.1455198,30.908,579.2939)" /><path
             style="fill:#ffffff;fill-opacity:1;stroke-width:0.43776494"
             d="m 422.55759,129.78644 v -8.09865 H 407.4547 392.35181 v -1.53218 -1.53217 h 31.51908 31.51907 v 1.53217 1.53218 h -15.10289 -15.10289 v 8.09865 8.09865 h -1.31329 -1.3133 z"
             id="path3827"
             inkscape:connector-curvature="0"
             transform="matrix(3.1455198,0,0,-3.1455198,30.908,579.2939)" /><path
             style="fill:#ffffff;fill-opacity:1;stroke-width:0.43776494"
             d="m 435.03389,99.360583 c -4.46884,-0.390083 -7.97753,-1.459386 -13.35183,-4.069082 -6.35244,-3.084675 -11.79778,-9.342713 -14.23385,-16.358198 -1.49656,-4.309839 -2.07554,-9.738828 -1.54143,-14.453709 0.96573,-8.525063 3.52046,-13.741188 9.8466,-20.10435 3.84361,-3.866091 4.92382,-4.679294 8.55649,-6.441475 4.99254,-2.421836 8.38374,-3.28968 14.26877,-3.651529 5.37977,-0.330781 8.70574,0.222956 15.24324,2.53783 2.62873,0.930811 5.34681,1.692383 6.04017,1.692383 1.40816,0 3.26687,-1.694243 3.68458,-3.35856 0.1786,-0.711569 0.57171,-1.019089 1.30274,-1.019089 h 1.04695 v 11.381888 c 0,11.156281 -0.0176,11.381888 -0.89109,11.381888 -0.64946,0 -1.12629,-0.563839 -1.75852,-2.079383 -2.34357,-5.617941 -4.85476,-9.02226 -8.95116,-12.134729 -5.21336,-3.961147 -6.3374,-4.39325 -11.38189,-4.375453 -5.58378,0.0197 -8.3741,1.039835 -11.98288,4.380933 -5.74338,5.317361 -8.31735,14.539387 -7.80346,27.958254 0.27566,7.198043 1.27126,12.308366 3.10163,15.920426 1.43332,2.828522 4.93205,5.993207 8.48829,7.677876 2.69784,1.278019 3.30825,1.394272 7.32089,1.394272 3.11348,0 5.04134,-0.231389 6.67592,-0.801271 l 2.29826,-0.801268 v -9.530322 c 0,-5.856056 -0.1874,-10.067902 -0.48608,-10.924695 -0.62131,-1.782302 -3.13346,-3.113927 -5.87452,-3.113927 -1.84216,0 -2.00565,-0.08575 -1.87794,-0.984971 l 0.13989,-0.984971 15.43122,-0.115042 15.43121,-0.115041 v 1.058934 c 0,0.940508 -0.24789,1.093027 -2.21662,1.363795 -4.67917,0.643552 -5.14134,1.976496 -5.19343,14.978385 l -0.0319,7.977969 -1.20386,0.619546 c -7.0532,3.629833 -20.59798,5.921783 -30.09634,5.092686 z"
             id="path3829"
             inkscape:connector-curvature="0"
             transform="matrix(3.1455198,0,0,-3.1455198,30.908,579.2939)" /><path
             style="fill:#ffffff;fill-opacity:1;stroke-width:0.43776494"
             d="m 469.8362,98.3273 c 0,-0.95448 0.21311,-1.051586 2.75582,-1.255689 3.44374,-0.276427 5.26402,-1.195055 6.04726,-3.051808 0.87875,-2.083166 0.90332,-52.145199 0.0263,-53.684065 -0.82438,-1.446596 -3.81465,-2.677837 -6.53115,-2.689201 -2.15885,-0.009 -2.29827,-0.07619 -2.29827,-1.107196 v -1.097583 l 28.56417,0.112612 28.56416,0.112611 v 9.411946 9.411946 h -1.04968 c -0.91097,0 -1.145,-0.347107 -1.77092,-2.62659 -1.04853,-3.818586 -3.00543,-7.119031 -5.22657,-8.814999 -3.17823,-2.426759 -6.57292,-3.211731 -15.246,-3.525419 L 496.1021,39.2501 v 12.545242 c 0,14.241742 -0.40034,12.997392 3.88585,12.07817 3.78411,-0.811548 7.19263,-5.478807 8.1573,-11.169741 0.50148,-2.958375 0.65944,-3.247195 1.77595,-3.247195 h 1.06491 v 16.635068 16.635067 h -1.08607 c -0.83176,0 -1.1452,-0.281899 -1.33857,-1.203854 -1.13936,-5.432436 -1.70668,-6.929159 -3.62843,-9.572734 -1.46121,-2.010057 -4.11807,-3.458831 -6.97044,-3.800953 l -1.8605,-0.223154 v 11.976279 c 0,7.846009 0.16765,12.344232 0.48612,13.043198 0.86753,1.904014 2.22928,2.257925 8.66724,2.25255 6.78219,-0.0056 7.98181,-0.370691 13.01014,-3.958835 3.30523,-2.358564 5.87314,-5.591025 7.20368,-9.06792 0.79365,-2.073947 1.13932,-2.508932 1.99377,-2.508932 0.56851,0 1.03366,0.107577 1.03366,0.239059 0,0.472463 -2.63246,17.512449 -2.85421,18.475392 l -0.22683,0.984971 H 497.62594 469.8362 Z"
             id="path3831"
             inkscape:connector-curvature="0"
             transform="matrix(3.1455198,0,0,-3.1455198,30.908,579.2939)" /><path
             style="fill:#ffffff;fill-opacity:1;stroke-width:0.43776494"
             d="m 559.35913,99.535015 c -6.53207,-0.967093 -12.13638,-2.95782 -16.31452,-5.795145 -3.12032,-2.118971 -7.66242,-6.950005 -9.65404,-10.268153 -5.73686,-9.557965 -5.81892,-23.034487 -0.19909,-32.698656 2.07394,-3.566464 7.36964,-8.935863 10.95072,-11.103122 6.31155,-3.819727 13.2886,-5.371575 22.39778,-4.981749 6.71145,0.287215 10.96576,1.206217 15.58293,3.366167 9.02507,4.222005 15.63269,12.30079 17.56094,21.470813 0.95448,4.539185 0.61892,12.648782 -0.69739,16.853949 -3.44759,11.013851 -12.15622,19.24145 -23.43002,22.135834 -3.41876,0.877718 -13.05836,1.484793 -16.19731,1.020062 z m 11.92544,-6.281507 c 2.88703,-1.258985 5.04692,-3.632625 6.93825,-7.624893 2.88321,-6.08597 3.39946,-9.011532 3.40888,-19.318089 0.01,-10.532311 -0.5109,-13.817786 -2.98593,-18.846732 -1.88069,-3.821321 -4.05232,-6.104443 -7.21896,-7.589584 -2.06147,-0.966824 -3.04375,-1.142875 -6.37673,-1.142875 -3.41899,0 -4.2664,0.160348 -6.40954,1.212814 -4.77821,2.346515 -8.32606,7.814639 -9.8643,15.203371 -1.08883,5.230031 -1.08642,18.011961 0.004,23.150174 1.91866,9.038056 5.83912,14.267683 11.89183,15.862894 2.47624,0.65262 8.14706,0.167905 10.61214,-0.90708 z"
             id="path3833"
             inkscape:connector-curvature="0"
             transform="matrix(3.1455198,0,0,-3.1455198,30.908,579.2939)" /><path
             style="fill:#ffffff;fill-opacity:1;stroke-width:0.43776494"
             d="m 472.26095,137.39993 c -3.54684,-0.51916 -6.83123,-1.54945 -7.94198,-2.49135 -1.60577,-1.36168 -1.92477,-2.52672 -1.92477,-7.02971 0,-4.0393 0.0845,-4.47323 1.10734,-5.68884 2.65263,-3.15248 6.61932,-3.53674 36.67762,-3.55308 l 24.8709,-0.0135 -0.13718,1.42273 -0.13718,1.42274 -27.57919,0.22717 c -27.98882,0.23055 -29.19919,0.30272 -31.19075,1.85989 -0.30096,0.23532 -0.5472,0.99471 -0.5472,1.68754 v 1.25969 h 29.76801 29.76802 v 1.3133 1.31329 H 495.2014 465.40821 l 0.13462,1.8605 c 0.13197,1.82399 0.18186,1.87763 2.54231,2.73323 2.29193,0.83076 3.71944,0.87916 29.68471,1.0065 l 27.277,0.13378 -0.13558,1.40121 -0.13557,1.4012 -24.9526,0.0578 c -13.72393,0.0318 -26.1269,-0.11404 -27.56215,-0.32412 z"
             id="path3835"
             inkscape:connector-curvature="0"
             transform="matrix(3.1455198,0,0,-3.1455198,30.908,579.2939)" /><path
             style="fill:#ffffff;fill-opacity:1;stroke-width:0.43776494"
             d="m 530.53961,137.59325 c -0.16052,-0.16051 -0.29185,-4.18483 -0.29185,-8.94291 0,-7.28092 0.10896,-8.76002 0.68792,-9.33899 0.37836,-0.37835 0.82159,-0.68447 0.98497,-0.68026 0.16338,0.004 7.17966,3.55011 15.59174,7.87977 8.41208,4.32966 15.62798,7.87211 16.03534,7.87211 0.40736,0 7.684,-3.54933 16.17033,-7.88741 12.09689,-6.18374 15.55955,-7.77962 16.03094,-7.3884 0.47472,0.39398 0.60127,2.42268 0.60127,9.63847 v 9.13946 h -1.3133 -1.31329 v -7.442 c 0,-4.0931 -0.0997,-7.44201 -0.22146,-7.44201 -0.1218,0 -6.71995,3.25041 -14.66255,7.22313 -7.9426,3.97271 -14.8687,7.22312 -15.39134,7.22312 -0.52263,0 -7.51708,-3.34503 -15.54323,-7.43341 l -14.59298,-7.4334 v 7.65228 7.65229 h -1.24033 c -0.68219,0 -1.37167,-0.13133 -1.53218,-0.29184 z"
             id="path3837"
             inkscape:connector-curvature="0"
             transform="matrix(3.1455198,0,0,-3.1455198,30.908,579.2939)" /></g></g></g></g></svg>